<?xml version="1.0" encoding="UTF-8"?>
<svg version="1.1" xmlns="http://www.w3.org/2000/svg" width="859" height="800">
<path d="M0 0 C0.67211405 -0.00538554 1.3442281 -0.01077108 2.03670925 -0.01631981 C4.28254946 -0.03059391 6.52779973 -0.02349689 8.77366638 -0.01637268 C10.38725762 -0.02207732 12.00084481 -0.02904194 13.61442566 -0.03717041 C17.99762216 -0.05512681 22.38061866 -0.05392634 26.76384091 -0.04822803 C30.43553631 -0.04513342 34.10719345 -0.05123311 37.7788834 -0.05726677 C46.45995672 -0.07132448 55.14093173 -0.06974616 63.82200623 -0.05836487 C72.73262697 -0.0469395 81.64294477 -0.06086185 90.55352551 -0.08776134 C98.23117915 -0.11005838 105.90873872 -0.11652279 113.58642238 -0.11068493 C118.15897189 -0.10734044 122.73132831 -0.10955835 127.30385017 -0.12693596 C163.88523596 -0.25282608 163.88523596 -0.25282608 180.19334412 4.38768005 C181.23922195 4.68476868 182.28509979 4.9818573 183.3626709 5.28794861 C185.64791505 5.97912161 187.84801237 6.76236199 190.06834412 7.63768005 C190.84387634 7.93505066 191.61940857 8.23242126 192.41844177 8.5388031 C219.88724076 19.4249639 241.40944361 40.3991567 253.34129333 67.33787537 C257.64658221 77.6952408 261.48072804 89.44290508 261.07225037 100.7353363 C261.00288455 104.28931449 261.0841747 107.00226336 262.19334412 110.38768005 C265.61006001 113.42476085 269.41036315 115.36359407 273.44773865 117.42088318 C278.17003093 120.0363066 282.1702742 123.82710479 286.19334412 127.38768005 C286.8778363 127.98838318 287.56232849 128.5890863 288.26756287 129.20799255 C305.612744 145.46250307 318.17429865 170.36561377 319.33226013 194.25340271 C319.79352473 209.4558679 319.43312884 223.73481683 315.19334412 238.38768005 C315.01142517 239.04477966 314.82950623 239.70187927 314.64207458 240.37889099 C305.23089346 273.76797865 281.30859836 303.59654978 251.16600037 320.52635193 C221.17581173 336.67270109 191.78788071 338.71466632 158.30125427 338.76853943 C154.78055304 338.77803815 151.26072473 338.81172046 147.74021912 338.84861755 C146.66834351 338.84357208 145.5964679 338.83852661 144.49211121 338.83332825 C138.45067509 338.91325362 134.71505476 339.21782134 130.19334412 343.38768005 C128.43707735 346.32860877 127.77238564 348.99442264 127.25170898 352.36380005 C127.09342621 353.36599075 126.93514343 354.36818146 126.77206421 355.40074158 C126.52342369 357.04109375 126.52342369 357.04109375 126.26976013 358.71458435 C125.99857361 360.44941826 125.99857361 360.44941826 125.72190857 362.21929932 C125.32995096 364.73208385 124.94105942 367.24534811 124.55485725 369.75902367 C123.94280341 373.7408291 123.322482 377.72126024 122.69943237 381.70135498 C121.15297054 391.59113718 119.62105086 401.48316614 118.09043884 411.37541199 C116.90154894 419.05774977 115.70893985 426.73947486 114.50589508 434.41961032 C113.78837286 439.00336074 113.08262601 443.58883797 112.37878418 448.17471313 C112.00176778 450.58781672 111.62430409 453.00085049 111.24632263 455.4138031 C111.08258652 456.49725006 110.9188504 457.58069702 110.75015259 458.69697571 C108.01879248 475.92732136 108.01879248 475.92732136 101.19334412 481.38768005 C97.58554366 482.5902802 94.2696367 482.5588399 90.51243591 482.58055115 C89.73159637 482.58872864 88.95075684 482.59690613 88.14625549 482.60533142 C85.56169904 482.63014773 82.97719734 482.6466912 80.39256287 482.66111755 C79.50916544 482.66644123 78.62576801 482.67176491 77.71560097 482.67724991 C73.04030348 482.70396434 68.36503254 482.72334523 63.68968201 482.73777771 C59.82225415 482.75112152 55.95535335 482.77898435 52.08811951 482.81980896 C47.41618147 482.86912689 42.7447218 482.89389751 38.07253456 482.90100479 C36.29393606 482.90771626 34.51534819 482.9229357 32.73689842 482.9468956 C30.24484618 482.97855563 27.75463689 482.97858343 25.26243591 482.97117615 C24.53131088 482.98758148 23.80018585 483.00398682 23.04690552 483.02088928 C17.34923 482.95174436 15.04515107 481.28518404 11.19334412 477.38768005 C6.94119731 468.88338644 11.33136269 454.65055552 12.81834412 445.59080505 C13.08820036 443.90414705 13.35722905 442.21735645 13.62547302 440.53044128 C14.32746063 436.1299391 15.04054034 431.73130723 15.75608826 427.33299255 C16.48678308 422.82887708 17.20677566 418.32305223 17.92771912 413.81736755 C19.33923144 405.00578377 20.76248903 396.19614207 22.19334412 387.38768005 C21.12703262 387.38181381 20.06072113 387.37594757 18.96209717 387.36990356 C8.91237972 387.31268691 -1.13712113 387.23993073 -11.18661785 387.15196514 C-16.35316089 387.10724049 -21.51962468 387.0679889 -26.68629456 387.04124451 C-31.67256641 387.01523255 -36.65853368 386.97484489 -41.64461708 386.92449379 C-43.54675826 386.90781084 -45.44895213 386.89630547 -47.35115623 386.89006615 C-50.01592808 386.88044063 -52.67991818 386.85240004 -55.34449768 386.8200531 C-56.13068481 386.82148819 -56.91687195 386.82292328 -57.72688293 386.82440186 C-63.2186146 386.73014172 -66.27359901 385.54838786 -70.39306158 382.03446954 C-73.42889951 378.49782117 -72.9472632 373.31153651 -72.62273872 368.87123764 C-72.27435322 366.07889359 -71.84577865 363.3100348 -71.38867188 360.53341675 C-71.22381147 359.47300692 -71.05895106 358.41259709 -70.88909489 357.32005364 C-70.33561095 353.77880529 -69.76534619 350.24047111 -69.19508362 346.70188904 C-68.79329463 344.15388147 -68.39254458 341.60570989 -67.99275208 339.05738831 C-67.12852147 333.55946906 -66.25564252 328.06297931 -65.37687492 322.56736565 C-64.09104853 314.52597785 -62.81850069 306.48253074 -61.54890955 298.43856574 C-59.46839964 285.25907379 -57.37728396 272.08128733 -55.27955627 258.90452576 C-53.27729242 246.32727125 -51.27981061 233.74927443 -49.2893219 221.17015076 C-49.16841255 220.40608156 -49.0475032 219.64201235 -48.92292993 218.85478954 C-48.31452394 215.009894 -47.7062144 211.16498321 -47.09796214 207.32006335 C-43.99596516 187.71168728 -40.89138191 168.10373816 -37.76890564 148.49861145 C-37.53494651 147.02945287 -37.30099107 145.56029371 -37.06703937 144.09113395 C-36.95186028 143.36785008 -36.8366812 142.6445662 -36.71801183 141.89936463 C-36.2572022 139.00562606 -35.79639952 136.11188638 -35.335614 133.21814397 C-35.10814769 131.78969877 -34.88066353 130.36125642 -34.65316126 128.93281695 C-31.70921008 110.44739448 -28.79580805 91.95758657 -25.93171632 73.45958841 C-24.95777515 67.1773703 -23.97704562 60.8962079 -22.99621278 54.61506253 C-22.11819724 48.9860242 -21.25221218 43.35531883 -20.39606524 37.72291517 C-19.88324135 34.36805622 -19.35898554 31.01506197 -18.83131862 27.66250873 C-18.59571511 26.14982902 -18.36497128 24.63638233 -18.13970494 23.12212873 C-15.62347103 6.23519801 -15.62347103 6.23519801 -9.59794807 1.73988342 C-6.18594258 0.08698397 -3.78642928 0.00766125 0 0 Z " fill="#003087" transform="translate(315.80665588378906,-0.3876800537109375)"/>
<path d="M0 0 C22.71560728 9.47355972 40.63658576 30.42584634 50.27734375 52.640625 C60.03467868 76.50748741 61.16395344 103.24109436 54 128 C53.81808105 128.65709961 53.63616211 129.31419922 53.44873047 129.99121094 C44.03754934 163.38029859 20.11525424 193.20886973 -10.02734375 210.13867188 C-40.01753239 226.28502104 -69.40546341 228.32698627 -102.89208984 228.38085938 C-106.41279108 228.3903581 -109.93261938 228.42404041 -113.453125 228.4609375 C-114.52500061 228.45589203 -115.59687622 228.45084656 -116.70123291 228.44564819 C-122.74266902 228.52557357 -126.47828936 228.83014128 -131 233 C-132.75626676 235.94092872 -133.42095848 238.60674259 -133.94163513 241.97612 C-134.09991791 242.9783107 -134.25820068 243.9805014 -134.42127991 245.01306152 C-134.58704025 246.10662964 -134.7528006 247.20019775 -134.92358398 248.3269043 C-135.104375 249.48346024 -135.28516602 250.64001617 -135.47143555 251.83161926 C-135.86339316 254.3444038 -136.2522847 256.85766806 -136.63848686 259.37134361 C-137.2505407 263.35314905 -137.87086212 267.33358018 -138.49391174 271.31367493 C-140.04037358 281.20345712 -141.57229326 291.09548609 -143.10290527 300.98773193 C-144.29179517 308.67006972 -145.48440426 316.3517948 -146.68744904 324.03193027 C-147.40497125 328.61568069 -148.1107181 333.20115792 -148.81455994 337.78703308 C-149.19157634 340.20013667 -149.56904003 342.61317043 -149.94702148 345.02612305 C-150.1107576 346.10957001 -150.27449371 347.19301697 -150.44319153 348.30929565 C-153.17455163 365.53964131 -153.17455163 365.53964131 -160 371 C-163.60780045 372.20260015 -166.92370741 372.17115985 -170.6809082 372.19287109 C-171.46174774 372.20104858 -172.24258728 372.20922607 -173.04708862 372.21765137 C-175.63164508 372.24246767 -178.21614677 372.25901114 -180.80078125 372.2734375 C-181.68417868 372.27876118 -182.5675761 372.28408485 -183.47774315 372.28956985 C-188.15304064 372.31628428 -192.82831157 372.33566517 -197.50366211 372.35009766 C-201.37108996 372.36344147 -205.23799076 372.39130429 -209.10522461 372.43212891 C-213.77716265 372.48144683 -218.44862231 372.50621745 -223.12080956 372.51332474 C-224.89940805 372.52003621 -226.67799592 372.53525564 -228.45644569 372.55921555 C-230.94849793 372.59087557 -233.43870722 372.59090338 -235.9309082 372.58349609 C-236.66203323 372.59990143 -237.39315826 372.61630676 -238.1464386 372.63320923 C-243.84411412 372.56406431 -246.14819304 370.89750398 -250 367 C-254.27964394 358.44071212 -249.93594753 344.63918205 -248.4453125 335.484375 C-248.18035296 333.81686443 -247.91611468 332.14923912 -247.65255737 330.48150635 C-247.10167662 327.00789562 -246.54476004 323.53532964 -245.98291016 320.06347656 C-245.26577311 315.63130438 -244.5599207 311.19743093 -243.85807991 306.76281357 C-243.31377927 303.3272442 -242.76554624 299.89231222 -242.21593857 296.4575882 C-241.95448819 294.82315968 -241.69376585 293.18861452 -241.43381119 291.55394745 C-241.0690729 289.26680296 -240.69954549 286.98048304 -240.32861328 284.69433594 C-240.11987579 283.39816345 -239.91113831 282.10199097 -239.69607544 280.76654053 C-239.20834643 278.12738536 -238.66857566 275.60343274 -237.99879456 273.01416016 C-236.98344113 269.0718684 -236.29560068 265.10268427 -235.69067383 261.07910156 C-235.57469628 260.32853139 -235.45871874 259.57796122 -235.33922672 258.80464649 C-234.95830239 256.33383337 -234.58265316 253.86224928 -234.20703125 251.390625 C-233.93769168 249.63670145 -233.66800044 247.88283188 -233.39797974 246.12901306 C-232.82747516 242.4197517 -232.25911593 238.71017046 -231.69235229 235.00033569 C-230.81237042 229.24324182 -229.92463019 223.48736117 -229.03540039 217.73168945 C-225.60153133 195.49768577 -225.60153133 195.49768577 -222.23072815 173.25405884 C-221.61058456 169.13131738 -220.9807095 165.0101106 -220.34799194 160.88928223 C-220.07709752 159.10630511 -219.81138133 157.32253256 -219.55117798 155.53796387 C-219.20171247 153.1416783 -218.83544622 150.74856104 -218.46484375 148.35546875 C-218.275271 147.08340576 -218.08569824 145.81134277 -217.89038086 144.50073242 C-216.63779276 139.57590084 -214.97698855 135.5311697 -210.83383179 132.3223114 C-207.3129704 130.67942096 -204.24372084 130.58159047 -200.43774414 130.61523438 C-199.31922813 130.60717522 -199.31922813 130.60717522 -198.17811584 130.59895325 C-196.56147406 130.58919007 -194.94477997 130.58622669 -193.32811165 130.58930969 C-190.74644151 130.5938176 -188.16544653 130.57969443 -185.58384705 130.56091309 C-180.07674262 130.52416175 -174.5697088 130.5104757 -169.0625 130.5 C-130.88919183 131.25102852 -130.88919183 131.25102852 -93.8125 123.4375 C-92.82475586 123.09452881 -91.83701172 122.75155762 -90.81933594 122.39819336 C-71.57765211 115.46356978 -55.84742352 104.98743647 -41 91 C-40.33613281 90.40058594 -39.67226563 89.80117187 -38.98828125 89.18359375 C-15.98251983 67.57777724 -2.95190599 34.28403547 -1.2109375 3.1953125 C-1 1 -1 1 0 0 Z " fill="#006FDF" transform="translate(577,110)"/>
<path d="M0 0 C1.09166977 -0.00426498 2.18333954 -0.00852997 3.30809021 -0.01292419 C5.10565262 -0.01224442 5.10565262 -0.01224442 6.93952942 -0.0115509 C8.83284248 -0.01658882 8.83284248 -0.01658882 10.7644043 -0.02172852 C14.23213734 -0.03057401 17.69984571 -0.03290715 21.16758895 -0.0335443 C23.34016599 -0.03425566 25.51273678 -0.03639184 27.68531227 -0.03904152 C35.28340171 -0.04830389 42.88147359 -0.05237618 50.47956848 -0.05158997 C57.52811899 -0.0509922 64.57659221 -0.06148211 71.6251232 -0.07733363 C77.69672474 -0.09049428 83.76830134 -0.09577016 89.839917 -0.09513456 C93.4565806 -0.09488162 97.07317584 -0.09761696 100.68982506 -0.10831261 C136.52742614 -0.20687548 136.52742614 -0.20687548 153.423172 4.88371277 C154.74417908 5.26970642 154.74417908 5.26970642 156.09187317 5.66349792 C163.31104034 7.84543751 170.04466539 10.6330377 176.735672 14.13371277 C178.16569814 45.54132404 163.64721203 76.18577571 143.235672 99.32121277 C141.74283144 100.93204416 140.24302207 102.53645059 138.735672 104.13371277 C138.06278137 104.87105652 137.38989075 105.60840027 136.6966095 106.36808777 C122.265458 121.60997812 103.5793086 131.73227861 83.923172 138.57121277 C83.03702209 138.88920837 82.15087219 139.20720398 81.23786926 139.53483582 C57.15591476 147.41932669 30.87263724 145.59148539 5.88160706 145.63902283 C0.4302486 145.65055946 -5.02080006 145.67405648 -10.47202873 145.7137146 C-13.00311429 145.72721543 -15.53377345 145.72313434 -18.06488037 145.7183075 C-19.61061652 145.72764247 -21.15634793 145.73780985 -22.70207214 145.74894714 C-23.39759186 145.74279892 -24.09311157 145.7366507 -24.80970764 145.73031616 C-30.15768131 145.797991 -33.2107023 147.22171642 -37.076828 150.82121277 C-37.468703 151.25433777 -37.860578 151.68746277 -38.264328 152.13371277 C-37.67921637 145.5997423 -36.86127254 139.15578929 -35.76823425 132.68840027 C-35.4585709 130.81869191 -35.14891984 128.94898152 -34.83927917 127.07926941 C-34.59254959 125.6005687 -34.59254959 125.6005687 -34.34083557 124.09199524 C-30.17240234 99.08758305 -26.25448929 74.04578559 -22.3693018 48.99623871 C-21.50867753 43.45095846 -20.63898805 37.90712089 -19.76768494 32.36351013 C-19.30604275 29.4013761 -18.8569298 26.43764461 -18.41130066 23.47306824 C-18.16089626 21.85858411 -17.91011838 20.24415784 -17.65885925 18.62980652 C-17.55885117 17.93653763 -17.45884308 17.24326874 -17.35580444 16.5289917 C-16.47307698 10.98421042 -14.92646529 6.67118976 -10.764328 2.82121277 C-7.07613436 0.33168206 -4.34379332 0.00766373 0 0 Z " fill="#001C64" transform="translate(399.2643280029297,95.86628723144531)"/>
<path d="M0 0 C0.68689407 -0.00540298 1.37378815 -0.01080597 2.08149719 -0.01637268 C4.35327293 -0.02887766 6.62378365 -0.01233823 8.89550781 0.00561523 C10.48813951 0.00546007 12.08077157 0.00396826 13.67340088 0.00120544 C17.01925266 -0.00018005 20.36467669 0.01238754 23.71044922 0.03515625 C27.95309919 0.06326528 32.19502381 0.06088168 36.43772507 0.04806614 C39.73423189 0.0410249 43.03057821 0.04899753 46.32706451 0.06132317 C47.88800688 0.06577603 49.44896692 0.06622978 51.00991058 0.06225777 C64.33663454 0.0442499 78.55021319 0.60290807 90.47363281 7.18920898 C91.13371338 7.53951172 91.79379395 7.88981445 92.47387695 8.25073242 C106.878145 16.12330363 117.09918119 27.70512234 122.09863281 43.50170898 C126.70852217 60.97076338 123.45173875 78.64400675 115.09863281 94.50170898 C112.66315787 98.37930781 109.99223683 101.955948 107.09863281 105.50170898 C106.13957031 106.70633789 106.13957031 106.70633789 105.16113281 107.93530273 C92.83649084 122.67020735 74.81502022 130.16770659 56.09863281 132.50170898 C52.95530473 132.6847609 49.81281767 132.75539964 46.66503906 132.81811523 C45.7871019 132.83889633 44.90916473 132.85967743 44.00462341 132.88108826 C41.22353297 132.94602843 38.44235496 133.00520825 35.66113281 133.06420898 C33.76594178 133.10744713 31.87075932 133.15106304 29.97558594 133.19506836 C25.35002268 133.3016522 20.7243721 133.40307306 16.09863281 133.50170898 C13.91550601 139.15254452 13.14215775 144.89200567 12.25878906 150.84936523 C11.91470018 153.08574141 11.57028939 155.32206808 11.22558594 157.55834961 C10.69048177 161.06887895 10.15879113 164.57985159 9.63305664 168.09179688 C9.12194485 171.49167733 8.59748556 174.88929153 8.07128906 178.28686523 C7.91805679 179.33592545 7.76482452 180.38498566 7.60694885 181.46583557 C5.99714361 191.75805814 5.99714361 191.75805814 3.09863281 194.50170898 C0.09991047 195.19638201 -2.80887646 195.13047374 -5.87402344 195.06030273 C-7.19230385 195.05680565 -7.19230385 195.05680565 -8.53721619 195.05323792 C-10.3941316 195.04349739 -12.25101713 195.02170308 -14.10766602 194.98876953 C-16.95666247 194.939334 -19.80393363 194.9272888 -22.65332031 194.92163086 C-24.45607314 194.90754615 -26.25881092 194.8913422 -28.06152344 194.87280273 C-28.91674088 194.86744003 -29.77195831 194.86207733 -30.65309143 194.85655212 C-36.66809773 194.73497844 -36.66809773 194.73497844 -38.90136719 192.50170898 C-40.32208331 183.62642538 -37.77995298 173.87934892 -36.39453125 165.09008789 C-36.12455782 163.34152396 -35.85520618 161.59286393 -35.58642578 159.84411621 C-34.85813228 155.12026459 -34.11998299 150.39800578 -33.37907887 145.67611742 C-32.91639068 142.7244342 -32.45583555 139.77242621 -31.99602509 136.82029343 C-30.39131088 126.51802633 -28.77848873 116.21706559 -27.15820312 105.91723633 C-25.64841699 96.31840509 -24.1566932 86.71688289 -22.67321992 77.11395323 C-21.39739506 68.86053022 -20.10894566 60.60914262 -18.81064391 52.35922563 C-18.0359787 47.43525643 -17.26649824 42.51061194 -16.50977325 37.58385086 C-15.79869154 32.95708884 -15.07196115 28.33305754 -14.33303833 23.71066284 C-14.06449864 22.01360063 -13.80158772 20.31563683 -13.54470062 18.6167717 C-13.1934074 16.29948007 -12.82202305 13.98628904 -12.44537354 11.67300415 C-12.24257908 10.3770463 -12.03978462 9.08108845 -11.83084488 7.74585915 C-9.91530899 1.06007623 -6.57794715 0.00088171 0 0 Z M29.09863281 42.50170898 C27.55069767 48.3196086 26.45457507 54.07796452 25.59082031 60.03295898 C25.46047394 60.9094812 25.33012756 61.78600342 25.1958313 62.68908691 C24.78472007 65.4594269 24.37908799 68.23053616 23.97363281 71.00170898 C23.6940482 72.89238774 23.41410378 74.78301333 23.13378906 76.67358398 C22.4512432 81.28235486 21.77360643 85.8918233 21.09863281 90.50170898 C25.31205888 90.57680432 29.52511317 90.63074844 33.73901367 90.66650391 C35.16746826 90.68143549 36.59587829 90.70178836 38.02416992 90.72802734 C49.00004267 90.92436881 60.25191102 90.90826677 69.09863281 83.50170898 C75.35054603 77.46537898 78.19036304 71.58725446 78.47363281 62.87670898 C78.2548136 56.53095168 76.57334394 52.68980426 71.97363281 48.31420898 C64.12344615 41.2256076 53.39957771 42.1288979 43.53613281 42.31420898 C42.13185034 42.32928787 40.72755215 42.3429706 39.32324219 42.35522461 C35.91463166 42.39036492 32.50684011 42.43956776 29.09863281 42.50170898 Z " fill="#002F87" transform="translate(38.9013671875,567.498291015625)"/>
<path d="M0 0 C0.68660202 -0.00511093 1.37320404 -0.01022186 2.08061218 -0.01548767 C4.36291119 -0.02944144 6.64490932 -0.0284197 8.92724609 -0.02612305 C10.52273673 -0.03001276 12.11822633 -0.034348 13.7137146 -0.03910828 C17.07138402 -0.04658714 20.42894842 -0.04627153 23.78662109 -0.04101562 C28.04497013 -0.0352819 32.30287552 -0.05199372 36.5611515 -0.0753603 C39.86620512 -0.09027178 43.17115693 -0.09094496 46.47623825 -0.08785057 C48.0427779 -0.08835721 49.60932428 -0.09346841 51.17583084 -0.10366249 C71.4180531 -0.21900712 89.24720329 3.1056172 105.32568359 16.2746582 C105.97279297 16.79543945 106.61990234 17.3162207 107.28662109 17.8527832 C115.12301978 24.87362908 120.88377302 36.12357542 123.32568359 46.2746582 C123.50615234 47.01973633 123.68662109 47.76481445 123.87255859 48.5324707 C126.94321627 67.11524387 122.03459119 85.77703293 111.34130859 101.12231445 C109.41746145 103.59423433 107.41927082 105.94564751 105.32568359 108.2746582 C104.80748047 108.88567383 104.28927734 109.49668945 103.75537109 110.1262207 C90.51379279 124.6986109 70.38201537 131.59531985 51.18554688 132.60766602 C45.73360032 132.81842032 40.28095876 132.89546662 34.82568359 132.9621582 C32.92331783 132.99542769 31.02097314 133.02992574 29.11865234 133.06567383 C24.52111517 133.14945274 19.9236166 133.21676826 15.32568359 133.2746582 C15.07661255 134.95084229 15.07661255 134.95084229 14.82250977 136.66088867 C14.19225785 140.89940678 13.55990986 145.13761018 12.92700195 149.37573242 C12.65594291 151.19270757 12.38541511 153.00976206 12.11547852 154.8269043 C11.33066436 160.10868897 10.53325273 165.38833167 9.72210693 170.6661377 C9.32517269 173.27801999 8.94369676 175.89188426 8.5625 178.50610352 C8.31370824 180.14000237 8.06422835 181.77379663 7.81396484 183.4074707 C7.70835739 184.15922577 7.60274994 184.91098083 7.49394226 185.68551636 C6.88738414 189.53507372 6.45346869 191.86810918 3.32568359 194.2746582 C0.26520848 194.56090319 -2.58745225 194.67096528 -5.64697266 194.63793945 C-6.52582626 194.63843796 -7.40467987 194.63893646 -8.31016541 194.63945007 C-10.16700503 194.63711038 -12.02384787 194.627388 -13.88061523 194.61083984 C-16.72945357 194.58721925 -19.57735799 194.59028301 -22.42626953 194.59692383 C-24.22900951 194.59134804 -26.03174553 194.58423879 -27.83447266 194.57543945 C-28.68969009 194.57635086 -29.54490753 194.57726227 -30.42604065 194.57820129 C-36.443285 194.50568961 -36.443285 194.50568961 -38.67431641 192.2746582 C-38.95454035 186.9126422 -38.46340351 181.93841982 -37.62478638 176.62666321 C-37.51185804 175.90056687 -37.39892971 175.17447053 -37.2825793 174.42637128 C-36.90613741 172.01587528 -36.52096994 169.60686014 -36.13574219 167.19775391 C-35.86261684 165.4609467 -35.59001712 163.72405677 -35.31790161 161.98709106 C-34.57974645 157.28604353 -33.83382969 152.58625848 -33.08616495 147.88671517 C-32.30394197 142.96357496 -31.52780239 138.03947515 -30.7507019 133.11552429 C-29.44531788 124.85072555 -28.13477762 116.58675651 -26.82128906 108.32324219 C-25.30304445 98.77106968 -23.79349774 89.21755272 -22.28847134 79.66328937 C-20.83941478 70.46592218 -19.38372027 61.26961699 -17.92516708 52.07375145 C-17.30493031 48.16234379 -16.68711523 44.25056497 -16.07126236 40.33846474 C-15.34610555 35.73375197 -14.61517306 31.12999253 -13.87977219 26.52690506 C-13.61087272 24.83775173 -13.34397898 23.1482777 -13.07923889 21.45846748 C-12.717547 19.15197206 -12.34860767 16.84674931 -11.97781372 14.54170227 C-11.77317568 13.25144292 -11.56853764 11.96118357 -11.35769844 10.63182545 C-9.75275578 2.74742017 -8.26501123 0.03060768 0 0 Z M29.32568359 42.2746582 C28.48299395 47.18079656 27.64712124 52.08803383 26.81713867 56.99633789 C26.5347616 58.66070723 26.25062803 60.32477966 25.96459961 61.98852539 C24.34748223 71.40235757 22.86541952 80.7231117 22.32568359 90.2746582 C26.55741998 90.34963445 30.78878948 90.40364362 35.02099609 90.43945312 C36.45628609 90.45440406 37.8915315 90.47477244 39.32666016 90.50097656 C51.67662874 90.72058897 62.66457097 89.81149933 72.32568359 81.2746582 C78.46544119 73.53768443 79.27351792 66.00073091 78.32568359 56.2746582 C76.30999706 50.58381907 72.69216845 47.01051323 67.32568359 44.2746582 C59.62658088 41.6679487 51.85313792 42.04973921 43.82568359 42.1496582 C42.41683578 42.15970751 41.00798104 42.16882991 39.59912109 42.17700195 C36.1744631 42.20045851 32.7501642 42.23328437 29.32568359 42.2746582 Z " fill="#006FE0" transform="translate(506.67431640625,567.725341796875)"/>
<path d="M0 0 C1.69235972 1.30056685 3.36716192 2.62544722 5 4 C5.19335938 3.43410156 5.38671875 2.86820313 5.5859375 2.28515625 C5.84632813 1.55167969 6.10671875 0.81820312 6.375 0.0625 C6.75785156 -1.03384766 6.75785156 -1.03384766 7.1484375 -2.15234375 C8 -4 8 -4 10 -5 C12.8207798 -5.11123833 15.61612814 -5.16411451 18.4375 -5.16796875 C19.6913147 -5.17296135 19.6913147 -5.17296135 20.97045898 -5.17805481 C22.73908945 -5.18312107 24.50772948 -5.18546323 26.27636719 -5.18530273 C28.98909135 -5.1874912 31.70141023 -5.20565527 34.4140625 -5.22460938 C36.13020694 -5.2275429 37.84635331 -5.22952797 39.5625 -5.23046875 C40.37710693 -5.23765427 41.19171387 -5.24483978 42.03100586 -5.25224304 C47.77117354 -5.22882646 47.77117354 -5.22882646 50 -3 C50.46208907 3.74082989 49.35583013 10.20041486 48.28759766 16.84448242 C48.1054924 18.00804764 47.92338715 19.17161285 47.73576355 20.37043762 C47.13470959 24.19978413 46.52468324 28.027637 45.9140625 31.85546875 C45.49193592 34.52233918 45.07130684 37.18944548 44.65048218 39.85652161 C43.76880425 45.43785196 42.88198121 51.01834683 41.9921875 56.59838867 C40.96472319 63.04226488 39.94596685 69.48747318 38.93172228 75.93344229 C37.95359995 82.14824611 36.96883099 88.36197992 35.98121262 94.57528114 C35.56193738 97.21396286 35.14544183 99.85303919 34.73018265 102.49236107 C34.14956063 106.17707659 33.56139418 109.86050984 32.97119141 113.54370117 C32.71548119 115.181017 32.71548119 115.181017 32.4546051 116.85140991 C32.29198685 117.85642044 32.12936859 118.86143097 31.96182251 119.89689636 C31.75441909 121.20177899 31.75441909 121.20177899 31.5428257 122.53302288 C30.15366479 128.84633521 30.15366479 128.84633521 28 131 C25.22346201 131.12587684 22.47315673 131.18866866 19.6953125 131.203125 C18.86039276 131.20882507 18.02547302 131.21452515 17.16525269 131.22039795 C15.39484938 131.22986258 13.62442833 131.23638772 11.85400391 131.24023438 C9.14324202 131.24993472 6.4332398 131.28094145 3.72265625 131.3125 C2.00521285 131.31903028 0.28776401 131.32428065 -1.4296875 131.328125 C-2.64856155 131.3466452 -2.64856155 131.3466452 -3.89205933 131.36553955 C-9.58031358 131.34299863 -9.58031358 131.34299863 -11.69534302 129.61444092 C-13.18821244 127.76709751 -13.59994827 126.32030003 -14 124 C-14.94359375 124.47050781 -15.8871875 124.94101562 -16.859375 125.42578125 C-34.95217299 134.28247856 -52.71422168 137.11104051 -72.13183594 130.68457031 C-86.60394749 125.38140764 -97.80860149 115.59973362 -105 102 C-113.59704356 81.94887369 -113.14390772 59.37852741 -105.25 39.1875 C-97.17863335 19.81672091 -82.74705711 4.61391899 -63.41796875 -3.6796875 C-41.94987577 -11.97250513 -20.08763728 -11.77054964 0 0 Z M-60.8125 43.8125 C-67.93952577 52.4277678 -69.96790163 62.03505724 -69 73 C-67.02538281 80.62487724 -62.17160928 87.17452346 -55.67578125 91.57421875 C-47.15702052 96.24148327 -39.08673172 96.7817486 -29.66796875 94.7890625 C-20.24039333 92.00081911 -11.96776499 85.71621171 -7.06640625 77.19140625 C-2.65339681 68.12291431 -1.16662309 58.48670053 -4.5 48.8125 C-8.09454914 40.87926699 -13.92590134 35.89842446 -21.921875 32.69140625 C-36.34640143 27.8922687 -50.62543808 32.95495205 -60.8125 43.8125 Z " fill="#002F87" transform="translate(265,631)"/>
<path d="M0 0 C0.928125 0.55558594 1.85625 1.11117187 2.8125 1.68359375 C3.8953125 2.33521484 3.8953125 2.33521484 5 3 C5.185625 1.329375 5.185625 1.329375 5.375 -0.375 C6 -4 6 -4 8 -6 C10.84540142 -6.19990227 13.59137784 -6.27976976 16.4375 -6.265625 C17.27337646 -6.26753845 18.10925293 -6.2694519 18.97045898 -6.27142334 C20.73909811 -6.27278536 22.50774723 -6.26908776 24.27636719 -6.26074219 C26.98915994 -6.25004275 29.70129044 -6.26063676 32.4140625 -6.2734375 C34.1302098 -6.27211591 35.84635669 -6.26955352 37.5625 -6.265625 C38.37710693 -6.26967346 39.19171387 -6.27372192 40.03100586 -6.27789307 C45.77008072 -6.22991928 45.77008072 -6.22991928 48 -4 C48.95295551 3.31795376 47.45882147 10.87372661 46.3034668 18.08740234 C46.12296783 19.25286591 45.94246887 20.41832947 45.75650024 21.61911011 C45.16199964 25.44267358 44.55617272 29.26433256 43.94921875 33.0859375 C43.63563705 35.0779115 43.32297712 37.07002875 43.01038486 39.06215823 C42.02974666 45.31064336 41.04097563 51.557804 40.04711914 57.80419922 C39.02317773 64.24065207 38.01346875 70.67922602 37.01057118 77.11898839 C36.14667534 82.66278483 35.27385361 88.20512583 34.39389163 93.74639475 C33.86939065 97.04990845 33.34933557 100.35395608 32.8359127 103.65922165 C32.26317332 107.33764814 31.67586557 111.01345847 31.0847168 114.68896484 C30.91783859 115.78096191 30.75096039 116.87295898 30.57902527 117.99804688 C30.41503235 118.99879242 30.25103943 119.99953796 30.08207703 121.03060913 C29.87605629 122.33297799 29.87605629 122.33297799 29.66587353 123.66165733 C28.89037839 126.38495733 27.96988968 127.96746926 26 130 C23.0414126 130.40497193 20.45961933 130.5609704 17.5 130.53125 C16.66791016 130.5350769 15.83582031 130.53890381 14.97851562 130.54284668 C13.22003977 130.5455675 11.46152356 130.5381943 9.703125 130.52148438 C7.00949995 130.50007551 4.31854197 130.52127848 1.625 130.546875 C-0.08333923 130.54423175 -1.79167679 130.53910683 -3.5 130.53125 C-4.30630859 130.53934692 -5.11261719 130.54744385 -5.94335938 130.55578613 C-11.47266546 130.46293888 -11.47266546 130.46293888 -14.03125 128.21679688 C-15 126 -15 126 -15 122 C-15.58265625 122.38671875 -16.1653125 122.7734375 -16.765625 123.171875 C-31.79990344 132.72195124 -49.25890597 135.42750102 -66.6875 131.9375 C-78.66728464 128.71793288 -88.40335957 122.86727541 -97 114 C-97.57234375 113.43667969 -98.1446875 112.87335938 -98.734375 112.29296875 C-110.12962869 100.22222322 -113.1778282 83.03102283 -113 67 C-112.10037149 44.56315733 -102.55547816 24.25328597 -86.546875 8.6015625 C-62.10002677 -12.84432531 -27.80383395 -16.70903482 0 0 Z M-61 41 C-67.2838192 48.80298428 -71.46558551 57.51146805 -71.2734375 67.6953125 C-70.26289404 76.21275023 -66.44693739 83.40029874 -60 89 C-53.22589346 93.90135138 -44.63844993 95.44199906 -36.43359375 94.66015625 C-24.85348616 92.54900395 -16.8803897 87.54318987 -10 78 C-4.93295655 69.52925867 -4.23035541 61.84277864 -5 52 C-6.83288035 44.83605621 -11.12215174 38.40264756 -17.43359375 34.4921875 C-32.08069311 26.87482528 -49.18983765 28.85581286 -61 41 Z " fill="#006FE0" transform="translate(735,632)"/>
<path d="M0 0 C0.85521744 0.00091141 1.71043488 0.00182281 2.59156799 0.00276184 C3.46946487 -0.00152328 4.34736176 -0.00580841 5.25186157 -0.01022339 C7.11044959 -0.01597191 8.96906012 -0.01646312 10.82765198 -0.01213074 C13.67447757 -0.00897327 16.52026181 -0.03241428 19.36695862 -0.05778503 C21.17099376 -0.06005819 22.97503171 -0.06076145 24.77906799 -0.05973816 C25.6322612 -0.06894791 26.48545441 -0.07815765 27.36450195 -0.08764648 C33.26224144 -0.04138838 33.26224144 -0.04138838 35.370224 1.44407654 C37.2454893 3.96813914 37.94001606 6.4131686 38.83644104 9.42732239 C39.40669258 11.31894356 39.40669258 11.31894356 39.98846436 13.2487793 C40.39282989 14.62504631 40.7969845 16.0013753 41.20094299 17.37776184 C41.62180112 18.78620064 42.0435099 20.19438551 42.46603394 21.60232544 C43.57433363 25.30370467 44.67105316 29.00841765 45.76539612 32.71394348 C46.88472423 36.49654249 48.01497055 40.27587441 49.14430237 44.05549622 C51.35747477 51.46835757 53.55842356 58.88477478 55.75172424 66.30354309 C58.19746211 63.93815557 59.84689537 61.67080347 61.54469299 58.70979309 C62.08472961 57.77481995 62.62476624 56.8398468 63.1811676 55.87654114 C63.76132629 54.86245178 64.34148499 53.84836243 64.93922424 52.80354309 C66.19358339 50.63247933 67.44882682 48.46192628 68.70484924 46.29182434 C69.36291565 45.15309875 70.02098206 44.01437317 70.69898987 42.84114075 C73.82048586 37.45216764 76.98655808 32.0895345 80.15959167 26.73078918 C81.16031888 25.03988381 82.15857338 23.34751579 83.15675354 21.65510559 C86.25167438 16.42823403 89.38413268 11.22693967 92.59938049 6.07307434 C93.43674744 4.73079773 93.43674744 4.73079773 94.29103088 3.36140442 C95.75172424 1.30354309 95.75172424 1.30354309 97.75172424 0.30354309 C99.12987388 0.20444307 100.51261197 0.16526987 101.89430237 0.15827942 C102.74858826 0.15189957 103.60287415 0.14551971 104.48304749 0.13894653 C105.40702332 0.13783371 106.33099915 0.13672089 107.28297424 0.13557434 C108.22983093 0.13224594 109.17668762 0.12891754 110.15223694 0.12548828 C112.15626031 0.12042063 114.16029213 0.11807991 116.1643219 0.11824036 C119.23916928 0.11605203 122.31365906 0.09788955 125.38844299 0.07893372 C127.33245218 0.0760002 129.27646307 0.07401512 131.22047424 0.07307434 C132.60643799 0.06229607 132.60643799 0.06229607 134.020401 0.05130005 C134.87468689 0.05437668 135.72897278 0.05745331 136.60914612 0.06062317 C137.36256287 0.05919815 138.11597961 0.05777313 138.89222717 0.05630493 C140.75172424 0.30354309 140.75172424 0.30354309 142.75172424 2.30354309 C142.52818435 7.72767284 140.86089087 11.35485365 137.87672424 15.74104309 C132.86566805 23.42161172 128.17086801 31.26781875 123.5131073 39.16520691 C112.39157135 58.01878401 112.39157135 58.01878401 107.68922424 65.42854309 C103.05916888 72.72538674 98.62621968 80.13849334 94.18922424 87.55354309 C88.21858229 97.52990005 82.22889143 107.49379704 76.18922424 117.42854309 C75.84399719 117.99642548 75.49877014 118.56430786 75.14308167 119.1493988 C73.74707173 121.44545705 72.35084815 123.7413851 70.95423889 126.03707886 C68.3627492 130.29716829 65.77518589 134.55962733 63.18922424 138.82307434 C62.42824232 140.07747154 61.66725603 141.3318661 60.90626526 142.58625793 C59.48196989 144.93405542 58.05802675 147.28206526 56.6342926 149.63020325 C54.67645476 152.85649601 52.71447571 156.0802377 50.75172424 159.30354309 C50.39233765 159.89645142 50.03295105 160.48935974 49.66267395 161.10023499 C48.57135089 162.90012548 47.47634896 164.69773212 46.38063049 166.49494934 C45.73295715 167.56044006 45.08528381 168.62593079 44.41798401 169.72370911 C42.75172424 172.30354309 42.75172424 172.30354309 40.75172424 174.30354309 C38.80957031 174.55078125 38.80957031 174.55078125 36.40968323 174.54646301 C35.51212814 174.54953964 34.61457306 174.55261627 33.68981934 174.55578613 C32.71895889 174.54860062 31.74809845 174.5414151 30.74781799 174.53401184 C29.75419754 174.53355362 28.76057709 174.5330954 27.73684692 174.53262329 C25.6344534 174.52959919 23.53206216 174.52170819 21.42970276 174.50935364 C18.19907255 174.49109874 14.96872876 174.48884389 11.73805237 174.48908997 C9.69963841 174.48417489 7.66122641 174.47834662 5.62281799 174.47151184 C4.64993332 174.47039902 3.67704865 174.46928619 2.67468262 174.46813965 C1.78027969 174.4617598 0.88587677 174.45537994 -0.03562927 174.44880676 C-0.82679642 174.44499496 -1.61796356 174.44118317 -2.43310547 174.43725586 C-4.24827576 174.30354309 -4.24827576 174.30354309 -5.24827576 173.30354309 C-6.18627206 167.17340562 -3.33334635 163.59732757 -0.06077576 158.74104309 C1.0406808 157.05432359 2.14089551 155.36679262 3.24000549 153.67854309 C3.81573303 152.80198059 4.39146057 151.92541809 4.9846344 151.02229309 C7.94022502 146.47497931 10.78132997 141.85780834 13.62672424 137.24104309 C14.14903625 136.39791565 14.67134827 135.55478821 15.20948792 134.68611145 C16.22202087 133.04946511 17.22811534 131.40881568 18.22731018 129.76399231 C19.28514984 128.05660793 20.37991419 126.37176888 21.50270081 124.70637512 C22.06183167 123.85285461 22.62096252 122.99933411 23.19703674 122.11994934 C23.71024475 121.36270569 24.22345276 120.60546204 24.75221252 119.82527161 C26.84982096 114.53308851 24.38044894 108.67435313 22.68556213 103.48323059 C22.47714691 102.83949997 22.26873169 102.19576935 22.05400085 101.53253174 C21.36621078 99.41272973 20.67032515 97.29568046 19.97438049 95.17854309 C19.48358601 93.6711421 18.99331667 92.16357003 18.50354004 90.65583801 C17.20875248 86.67454158 15.90716209 82.69550238 14.60401917 78.7169342 C13.31806183 74.78741032 12.03796848 70.85597921 10.75758362 66.92463684 C10.251041 65.3701874 9.74447974 63.81574403 9.23789978 62.26130676 C8.23030069 59.16917055 7.22324648 56.07685752 6.21647644 52.98445129 C5.71673943 51.45016752 5.21693301 49.91590635 4.71705627 48.38166809 C4.34918723 47.252472 4.34918723 47.252472 3.97388649 46.10046387 C2.49461222 41.56514748 1.00288427 37.03414178 -0.49860668 32.50613403 C-1.4481896 29.63848641 -2.39099159 26.76863659 -3.33259773 23.89836121 C-3.77357372 22.55991357 -4.21769367 21.22249705 -4.66518974 19.88621521 C-5.27980137 18.05013792 -5.88259644 16.21011789 -6.48484802 14.36994934 C-6.82701859 13.33813538 -7.16918915 12.30632141 -7.52172852 11.24324036 C-8.29569231 8.11169003 -8.52345332 5.51591758 -8.24827576 2.30354309 C-5.59585554 -0.34887713 -3.60980256 0.04350046 0 0 Z " fill="#002F87" transform="translate(334.24827575683594,625.6964569091797)"/>
<path d="M0 0 C0.8306749 0.00091644 1.66134979 0.00183289 2.51719666 0.0027771 C4.26974212 0.00880882 6.02227748 0.02454209 7.7746582 0.04931641 C10.45888174 0.08585634 13.14172543 0.09033545 15.82617188 0.08984375 C17.52995986 0.09967412 19.23373849 0.11133078 20.9375 0.125 C21.74067154 0.12722565 22.54384308 0.12945129 23.37135315 0.13174438 C27.22271255 0.19747317 29.12541509 0.27631839 32.40234375 2.4609375 C34.23551313 10.98403431 31.23982123 21.24594432 29.87963867 29.76489258 C29.60802024 31.5019772 29.33704673 33.23916278 29.06666565 34.97644043 C28.33413001 39.669354 27.59183628 44.36067359 26.84712386 49.05166841 C26.22545418 52.97305939 25.60847181 56.89518211 24.99143201 60.81730384 C23.53610142 70.06707218 22.07271087 79.31554053 20.60424805 88.56323242 C19.09001479 98.10007156 17.58936723 107.63897871 16.09534758 117.17900354 C14.81053839 125.38002967 13.51739431 133.57971164 12.21753198 141.77836531 C11.44191949 146.67092951 10.66946993 151.56393963 9.90501976 156.45826149 C9.18659642 161.05549665 8.45777683 165.65096401 7.72090721 170.2452774 C7.45233052 171.93093763 7.18742636 173.61718773 6.92647171 175.30404472 C6.56962916 177.60686386 6.19956028 179.90717862 5.82609558 182.20735168 C5.62237933 183.4950134 5.41866308 184.78267511 5.20877361 186.10935688 C4.40513338 189.44934359 3.42409163 191.69957115 1.40234375 194.4609375 C-0.45678711 195.08912659 -0.45678711 195.08912659 -2.5625 195.09204102 C-3.35342041 195.10457413 -4.14434082 195.11710724 -4.95922852 195.13002014 C-5.80928467 195.11676193 -6.65934082 195.10350372 -7.53515625 195.08984375 C-8.41163818 195.09225571 -9.28812012 195.09466766 -10.19116211 195.09715271 C-12.04382859 195.09617343 -13.89652403 195.08276051 -15.74902344 195.05786133 C-18.58759791 195.02355905 -21.42305938 195.03719438 -24.26171875 195.05664062 C-26.06121119 195.04974214 -27.86069558 195.04006974 -29.66015625 195.02734375 C-30.5102124 195.03230362 -31.36026855 195.03726349 -32.23608398 195.04237366 C-33.02700439 195.02653732 -33.8179248 195.01070099 -34.6328125 194.99438477 C-35.67514038 194.9850869 -35.67514038 194.9850869 -36.73852539 194.9756012 C-38.59765625 194.4609375 -38.59765625 194.4609375 -40.38363647 192.83354187 C-42.06836759 189.54100869 -41.58426522 187.60423468 -40.98681641 183.96582031 C-40.82872812 182.95326298 -40.82872812 182.95326298 -40.66744614 181.92024994 C-40.29846736 179.58195097 -39.90451607 177.24847051 -39.51171875 174.9140625 C-39.2334645 173.17894661 -38.95714915 171.44351895 -38.68252563 169.70782471 C-38.04081594 165.66248695 -37.38999803 161.6187225 -36.73547363 157.57543945 C-35.4477232 149.57429797 -34.22243467 141.56390818 -32.99902344 133.55273438 C-30.79413298 119.1244503 -28.56428124 104.70022609 -26.31614304 90.27861786 C-25.00028947 81.83493892 -23.69088402 73.39035634 -22.39648438 64.94335938 C-21.24924091 57.45672265 -20.09055374 49.97196588 -18.91774619 42.48928952 C-18.30237373 38.56070349 -17.69260861 34.63144027 -17.09669113 30.69985199 C-16.54120749 27.03632281 -15.97038973 23.37551888 -15.38755989 19.71624374 C-15.07674713 17.73908007 -14.78227789 15.75936884 -14.48829651 13.77963257 C-14.29794327 12.60347382 -14.10759003 11.42731506 -13.91146851 10.21551514 C-13.67427377 8.6839937 -13.67427377 8.6839937 -13.43228722 7.12153244 C-11.2378619 0.12625293 -6.54078273 -0.11732899 0 0 Z " fill="#006FE0" transform="translate(826.59765625,567.5390625)"/>
</svg>
