<?xml version="1.0" encoding="UTF-8"?>
<svg id="Capa_1" data-name="Capa 1" xmlns="http://www.w3.org/2000/svg" viewBox="0 0 601.37 559.97">
  <defs>
    <style>
      .cls-1 {
        fill: #fff;
      }

      .cls-2 {
        fill: #878787;
      }

      .cls-3 {
        fill: #dfdfdf;
      }
    </style>
  </defs>
  <path class="cls-3" d="M221.13.11c.47,0,.94,0,1.42-.01,1.57,0,3.14,0,4.71,0,1.13,0,2.26,0,3.38-.01,3.07-.01,6.13-.01,9.19,0,2.57,0,5.13,0,7.7,0,6.07,0,12.14,0,18.21,0,6.23,0,12.46,0,18.69-.02,5.37-.02,10.74-.02,16.11-.02,3.2,0,6.39,0,9.59-.01q25.58-.09,36.98,3.16c.73.21,1.46.42,2.22.63,1.6.48,3.14,1.03,4.69,1.64.54.21,1.08.42,1.64.63,19.21,7.61,34.26,22.28,42.6,41.12,3.01,7.24,5.69,15.46,5.41,23.35-.05,2.49,0,4.38.78,6.75,2.39,2.12,5.05,3.48,7.87,4.92,3.3,1.83,6.1,4.48,8.91,6.97.48.42.96.84,1.45,1.27,12.13,11.37,20.91,28.78,21.72,45.48.32,10.63.07,20.62-2.89,30.86-.13.46-.25.92-.39,1.39-6.58,23.35-23.31,44.21-44.39,56.04-20.97,11.29-41.52,12.72-64.94,12.76-2.46,0-4.92.03-7.38.06-.75,0-1.5,0-2.27-.01-4.22.06-6.84.27-10,3.18-1.23,2.06-1.69,3.92-2.06,6.28-.11.7-.22,1.4-.34,2.12q-.17,1.15-.35,2.32t-.38,2.45c-.27,1.76-.55,3.51-.82,5.27-.43,2.78-.86,5.57-1.3,8.35-1.08,6.92-2.15,13.83-3.22,20.75-.83,5.37-1.67,10.74-2.51,16.11-.5,3.21-1,6.41-1.49,9.62-.26,1.69-.53,3.37-.79,5.06-.11.76-.23,1.52-.35,2.3q-1.91,12.05-6.68,15.87c-2.52.84-4.84.82-7.47.83-.55,0-1.09.01-1.65.02-1.81.02-3.61.03-5.42.04-.62,0-1.24,0-1.87.01-3.27.02-6.54.03-9.81.04-2.7,0-5.41.03-8.11.06-3.27.03-6.53.05-9.8.06-1.24,0-2.49.02-3.73.03-1.74.02-3.48.02-5.23.02-.51.01-1.02.02-1.55.03-3.98-.05-5.6-1.21-8.29-3.94-2.97-5.95.1-15.9,1.14-22.23.19-1.18.38-2.36.56-3.54.49-3.08.99-6.15,1.49-9.23.51-3.15,1.01-6.3,1.52-9.45.99-6.16,1.98-12.32,2.98-18.48-.75,0-1.49,0-2.26-.01-7.03-.04-14.05-.09-21.08-.15-3.61-.03-7.23-.06-10.84-.08-3.49-.02-6.97-.05-10.46-.08-1.33-.01-2.66-.02-3.99-.02-1.86,0-3.73-.03-5.59-.05-.55,0-1.1,0-1.67,0-3.84-.07-5.98-.89-8.86-3.35-2.12-2.47-1.79-6.1-1.56-9.2.24-1.95.54-3.89.86-5.83.12-.74.23-1.48.35-2.25.39-2.48.79-4.95,1.18-7.42.28-1.78.56-3.56.84-5.35.6-3.84,1.21-7.69,1.83-11.53.9-5.62,1.79-11.25,2.68-16.87,1.45-9.22,2.92-18.43,4.38-27.64,1.4-8.79,2.8-17.59,4.19-26.39.08-.53.17-1.07.26-1.62.43-2.69.85-5.38,1.28-8.07,2.17-13.71,4.34-27.42,6.52-41.13.16-1.03.33-2.05.49-3.08.08-.51.16-1.01.24-1.53.32-2.02.64-4.05.97-6.07.16-1,.32-2,.48-3,2.06-12.93,4.1-25.86,6.1-38.79.68-4.39,1.37-8.79,2.05-13.18.61-3.94,1.22-7.87,1.82-11.81.36-2.35.73-4.69,1.09-7.03.16-1.06.33-2.12.48-3.17q1.76-11.81,5.97-14.95c2.39-1.16,4.06-1.21,6.71-1.22Z"/>
  <path class="cls-1" d="M403.77,77.3c15.88,6.62,28.42,21.28,35.16,36.81,6.82,16.69,7.61,35.38,2.6,52.7-.13.46-.25.92-.39,1.39-6.58,23.35-23.31,44.21-44.39,56.04-20.97,11.29-41.52,12.72-64.94,12.76-2.46,0-4.92.03-7.38.06-.75,0-1.5,0-2.27-.01-4.22.06-6.84.27-10,3.18-1.23,2.06-1.69,3.92-2.06,6.28-.11.7-.22,1.4-.34,2.12-.12.76-.23,1.53-.35,2.32-.13.81-.25,1.62-.38,2.45-.27,1.76-.55,3.51-.82,5.27-.43,2.78-.86,5.57-1.3,8.35-1.08,6.92-2.15,13.83-3.22,20.75-.83,5.37-1.67,10.74-2.51,16.11-.5,3.21-1,6.41-1.49,9.62-.26,1.69-.53,3.37-.79,5.06-.11.76-.23,1.52-.35,2.3q-1.91,12.05-6.68,15.87c-2.52.84-4.84.82-7.47.83-.55,0-1.09.01-1.65.02-1.81.02-3.61.03-5.42.04-.62,0-1.24,0-1.87.01-3.27.02-6.54.03-9.81.04-2.7,0-5.41.03-8.11.06-3.27.03-6.53.05-9.8.06-1.24,0-2.49.02-3.73.03-1.74.02-3.48.02-5.23.02-.51.01-1.02.02-1.55.03-3.98-.05-5.6-1.21-8.29-3.94-2.99-5.99.04-15.64,1.09-22.04.19-1.17.37-2.33.55-3.5.39-2.43.77-4.86,1.17-7.28.5-3.1,1-6.2,1.49-9.3.38-2.4.76-4.8,1.15-7.21.18-1.14.37-2.29.55-3.43.26-1.6.51-3.2.77-4.8.15-.91.29-1.81.44-2.75.34-1.85.72-3.61,1.19-5.42.71-2.76,1.19-5.53,1.61-8.35.08-.52.16-1.05.25-1.59.27-1.73.53-3.46.79-5.18.19-1.23.38-2.45.57-3.68.4-2.59.8-5.19,1.19-7.78.62-4.03,1.24-8.05,1.86-12.08q2.4-15.55,4.76-31.1c.43-2.88.87-5.76,1.32-8.65.19-1.25.38-2.49.56-3.74.24-1.68.5-3.35.76-5.02.13-.89.27-1.78.4-2.7.88-3.44,2.04-6.27,4.93-8.52,2.46-1.15,4.61-1.22,7.27-1.19q.78,0,1.58-.01c1.13,0,2.26,0,3.39,0,1.81,0,3.61,0,5.42-.02,3.85-.03,7.7-.04,11.55-.04q26.69.53,52.62-4.94c.69-.24,1.38-.48,2.09-.73,13.46-4.85,24.45-12.17,34.84-21.96.46-.42.93-.84,1.41-1.27,16.09-15.11,25.2-38.39,26.42-60.13q.15-1.54.85-2.23Z"/>
  <path class="cls-2" d="M279.49,67.42c.76,0,1.53,0,2.31,0q1.26,0,2.54,0t2.67,0c2.42,0,4.85,0,7.27,0,1.52,0,3.04,0,4.56,0,5.31,0,10.63,0,15.94,0,4.93,0,9.86,0,14.79-.02,4.25,0,8.49-.01,12.74-.01,2.53,0,5.06,0,7.59,0q25.06-.07,36.87,3.49.92.27,1.87.55c5.05,1.53,9.76,3.48,14.44,5.92,1,21.96-9.15,43.39-23.43,59.57-1.04,1.13-2.09,2.25-3.15,3.37-.47.52-.94,1.03-1.43,1.56-10.09,10.66-23.16,17.74-36.9,22.52-.62.22-1.24.44-1.88.67-16.84,5.51-35.22,4.24-52.69,4.27-3.81,0-7.62.02-11.44.05-1.77,0-3.54,0-5.31,0-1.08,0-2.16.01-3.24.02-.49,0-.97,0-1.47-.01-3.74.05-5.87,1.04-8.58,3.56-.27.3-.55.61-.83.92.41-4.57.98-9.08,1.75-13.6.22-1.31.43-2.61.65-3.92q.17-1.03.35-2.09c2.91-17.48,5.65-35,8.37-52.51.6-3.88,1.21-7.75,1.82-11.63.32-2.07.64-4.14.95-6.22.18-1.13.35-2.26.53-3.39.07-.48.14-.97.21-1.47.62-3.88,1.7-6.89,4.61-9.59,2.58-1.74,4.49-1.97,7.53-1.97Z"/>
  <path class="cls-3" d="M27.49,397.22c.48,0,.96,0,1.46-.01,1.59,0,3.18,0,4.76.02,1.11,0,2.23,0,3.34,0,2.34,0,4.68,0,7.02.02,2.97.02,5.93.02,8.9,0,2.31,0,4.61,0,6.92,0,1.09,0,2.18,0,3.27,0,9.32-.01,19.26.38,27.6,4.98.46.24.92.49,1.4.74,10.07,5.51,17.22,13.6,20.72,24.65,3.22,12.22.95,24.57-4.89,35.66-1.7,2.71-3.57,5.21-5.59,7.69q-.67.84-1.35,1.7c-8.62,10.3-21.22,15.55-34.31,17.18-2.2.13-4.4.18-6.6.22-.61.01-1.23.03-1.86.04-1.94.05-3.89.09-5.83.13-1.33.03-2.65.06-3.98.09-3.23.07-6.47.15-9.7.21-1.53,3.95-2.07,7.96-2.69,12.13-.24,1.56-.48,3.13-.72,4.69-.37,2.45-.75,4.91-1.11,7.37-.36,2.38-.72,4.75-1.09,7.13-.11.73-.21,1.47-.32,2.22q-1.13,7.2-3.15,9.12c-2.1.49-4.13.44-6.27.39q-.92,0-1.86,0c-1.3,0-2.6-.02-3.9-.05-1.99-.03-3.98-.04-5.98-.05-1.26,0-2.52-.02-3.78-.03-.6,0-1.2,0-1.81-.01q-4.21-.09-5.77-1.65c-.99-6.21.78-13.02,1.75-19.17.19-1.22.38-2.45.57-3.67.51-3.3,1.03-6.61,1.54-9.91.32-2.06.65-4.13.97-6.19,1.12-7.2,2.25-14.41,3.38-21.61,1.06-6.71,2.1-13.43,3.14-20.14.89-5.77,1.79-11.54,2.7-17.31.54-3.44,1.08-6.89,1.61-10.33.5-3.24,1.01-6.47,1.52-9.7.19-1.19.37-2.37.55-3.56.25-1.62.51-3.24.77-4.86.14-.91.28-1.81.43-2.75,1.34-4.68,3.67-5.42,8.27-5.42ZM47.84,426.94c-1.08,4.07-1.85,8.09-2.45,12.26-.09.61-.18,1.23-.28,1.86-.29,1.94-.57,3.87-.85,5.81-.2,1.32-.39,2.64-.59,3.97-.48,3.22-.95,6.45-1.42,9.67,2.95.05,5.89.09,8.84.12,1,.01,2,.02,3,.04,7.68.14,15.54.13,21.73-5.05,4.37-4.22,6.36-8.33,6.56-14.42-.15-4.44-1.33-7.12-4.55-10.18-5.49-4.96-12.99-4.33-19.89-4.2-.98.01-1.96.02-2.95.03-2.38.02-4.77.06-7.15.1Z"/>
  <path class="cls-1" d="M354.59,397.38c.48,0,.96,0,1.45-.01,1.6,0,3.19,0,4.79,0,1.12,0,2.23,0,3.35,0,2.35,0,4.7,0,7.04,0,2.98,0,5.96,0,8.93-.02,2.31-.01,4.62-.01,6.93,0,1.1,0,2.19,0,3.29-.01,14.15-.08,26.62,2.24,37.87,11.45.45.36.91.73,1.37,1.1,5.48,4.91,9.51,12.78,11.22,19.87.13.52.25,1.04.38,1.58,2.15,12.99-1.29,26.04-8.76,36.77-1.35,1.73-2.74,3.37-4.21,5-.36.43-.72.85-1.1,1.29-9.26,10.19-23.34,15.01-36.76,15.72-3.81.15-7.63.2-11.44.25-1.33.02-2.66.05-3.99.07-3.21.06-6.43.11-9.64.15q-.17,1.17-.35,2.37c-.44,2.96-.88,5.93-1.33,8.89-.19,1.27-.38,2.54-.57,3.81-.55,3.69-1.11,7.39-1.67,11.08-.28,1.83-.54,3.65-.81,5.48-.17,1.14-.35,2.28-.52,3.43-.07.53-.15,1.05-.22,1.59-.42,2.69-.73,4.32-2.91,6.01-2.14.2-4.13.28-6.27.25-.61,0-1.23,0-1.86,0-1.3,0-2.6,0-3.9-.02-1.99-.02-3.98-.01-5.98,0-1.26,0-2.52,0-3.78-.02-.6,0-1.2,0-1.81,0q-4.21-.05-5.77-1.61c-.2-3.75.15-7.23.73-10.94.08-.51.16-1.02.24-1.54.26-1.69.53-3.37.8-5.05.19-1.21.38-2.43.57-3.64.52-3.29,1.04-6.57,1.56-9.86.55-3.44,1.09-6.89,1.63-10.33.91-5.78,1.83-11.56,2.75-17.34,1.06-6.68,2.12-13.36,3.17-20.04,1.01-6.43,2.03-12.86,3.05-19.29.43-2.74.87-5.47,1.3-8.21.51-3.22,1.02-6.44,1.53-9.66.19-1.18.37-2.36.56-3.54.25-1.61.51-3.22.77-4.84.14-.9.29-1.8.43-2.73,1.12-5.51,2.16-7.41,7.94-7.43ZM375.1,426.94c-.59,3.43-1.17,6.86-1.75,10.29-.2,1.16-.4,2.33-.6,3.49-1.13,6.58-2.17,13.1-2.54,19.78,2.96.05,5.92.09,8.88.12,1,.01,2.01.02,3.01.04,8.64.15,16.32-.48,23.08-6.45,4.29-5.41,4.86-10.68,4.2-17.48-1.41-3.98-3.94-6.48-7.69-8.39-5.38-1.82-10.82-1.56-16.43-1.49-.99,0-1.97.01-2.96.02-2.39.02-4.79.04-7.18.07Z"/>
  <path class="cls-3" d="M185.6,441.62c1.18.91,2.35,1.84,3.5,2.8.14-.4.27-.79.41-1.2.18-.51.36-1.03.55-1.55q.27-.77.54-1.55.6-1.29,1.99-1.99c1.97-.08,3.93-.11,5.9-.12q.88,0,1.77,0c1.24,0,2.47,0,3.71,0,1.9,0,3.79-.01,5.69-.03,1.2,0,2.4,0,3.6,0,.57,0,1.14-.01,1.73-.02q4.01.02,5.57,1.57c.32,4.71-.45,9.23-1.2,13.88-.13.81-.25,1.63-.39,2.47-.42,2.68-.85,5.35-1.27,8.03-.3,1.86-.59,3.73-.88,5.59-.62,3.9-1.24,7.81-1.86,11.71-.72,4.51-1.43,9.01-2.14,13.52-.68,4.35-1.37,8.69-2.06,13.04-.29,1.85-.58,3.69-.87,5.54-.41,2.58-.82,5.15-1.23,7.73q-.18,1.14-.36,2.31c-.11.7-.23,1.41-.34,2.13q-.15.91-.29,1.84-.97,4.41-2.48,5.92c-1.94.09-3.86.13-5.81.14-.58,0-1.17,0-1.77.01-1.24,0-2.48.01-3.71.01-1.9,0-3.79.03-5.69.05-1.2,0-2.4,0-3.6.01q-.85.01-1.72.03-3.98-.02-5.46-1.22c-1.04-1.29-1.33-2.3-1.61-3.93-.66.33-1.32.66-2,1-12.65,6.19-25.07,8.17-38.65,3.68-10.12-3.71-17.95-10.55-22.98-20.06-6.01-14.02-5.69-29.8-.17-43.92,5.64-13.55,15.74-24.18,29.25-29.98,15.01-5.8,30.3-5.66,44.35,2.57ZM143.07,472.26c-4.98,6.02-6.4,12.74-5.73,20.41,1.38,5.33,4.77,9.91,9.32,12.99,5.96,3.26,11.6,3.64,18.19,2.25,6.59-1.95,12.38-6.34,15.8-12.31,3.09-6.34,4.13-13.08,1.79-19.84-2.51-5.55-6.59-9.03-12.18-11.27-10.09-3.36-20.07.18-27.19,7.78Z"/>
  <path class="cls-1" d="M514.25,442.32c.65.39,1.3.78,1.97,1.18q.76.46,1.53.92.13-1.17.26-2.36.44-2.53,1.84-3.93c1.99-.14,3.91-.2,5.9-.19.58,0,1.17,0,1.77,0,1.24,0,2.47,0,3.71,0,1.9,0,3.79,0,5.69,0,1.2,0,2.4,0,3.6,0,.57,0,1.14,0,1.73,0q4.01.03,5.57,1.59c.67,5.12-.38,10.4-1.19,15.45-.13.81-.25,1.63-.38,2.47-.42,2.67-.84,5.35-1.26,8.02-.22,1.39-.44,2.79-.66,4.18-.69,4.37-1.38,8.74-2.07,13.11-.72,4.5-1.42,9-2.12,13.51-.6,3.88-1.21,7.75-1.83,11.63-.37,2.31-.73,4.62-1.09,6.93-.4,2.57-.81,5.14-1.22,7.71-.12.76-.23,1.53-.35,2.31-.11.7-.23,1.4-.35,2.12q-.14.91-.29,1.84c-.54,1.9-1.19,3.01-2.56,4.43-2.07.28-3.87.39-5.94.37-.58,0-1.16,0-1.76,0-1.23,0-2.46,0-3.69-.01-1.88-.01-3.77,0-5.65.02-1.19,0-2.39,0-3.58-.01-.56,0-1.13.01-1.71.02q-3.87-.06-5.66-1.64-.68-1.55-.68-4.35c-.41.27-.81.54-1.23.82-10.51,6.68-22.72,8.57-34.91,6.13-8.38-2.25-15.19-6.34-21.2-12.54-.4-.39-.8-.79-1.21-1.19-7.97-8.44-10.1-20.46-9.98-31.67.63-15.69,7.3-29.89,18.5-40.84,17.09-15,41.08-17.7,60.52-6.01ZM471.6,470.99c-4.39,5.46-7.32,11.55-7.18,18.67.71,5.96,3.38,10.98,7.88,14.9,4.74,3.43,10.74,4.5,16.48,3.96,8.1-1.48,13.67-4.98,18.48-11.65,3.54-5.92,4.03-11.3,3.5-18.18-1.28-5.01-4.28-9.51-8.69-12.24-10.24-5.33-22.21-3.94-30.46,4.55Z"/>
  <path class="cls-3" d="M234.02,437.91c.6,0,1.2,0,1.81,0,.61,0,1.23,0,1.86,0,1.3,0,2.6,0,3.9,0,1.99,0,3.98-.01,5.97-.03,1.26,0,2.52,0,3.78,0,.6,0,1.19-.01,1.81-.02q4.12.03,5.6,1.07c1.31,1.76,1.8,3.47,2.42,5.58q.4,1.32.81,2.67c.28.96.57,1.92.85,2.89.29.98.59,1.97.88,2.95.77,2.59,1.54,5.18,2.31,7.77.78,2.65,1.57,5.29,2.36,7.93,1.55,5.18,3.09,10.37,4.62,15.56,1.71-1.65,2.86-3.24,4.05-5.31.38-.65.76-1.31,1.14-1.98.41-.71.81-1.42,1.23-2.15.88-1.52,1.75-3.04,2.63-4.55.46-.8.92-1.59,1.39-2.41,2.18-3.77,4.4-7.52,6.62-11.27.7-1.18,1.4-2.37,2.1-3.55,2.16-3.65,4.35-7.29,6.6-10.9q.59-.94,1.18-1.9,1.02-1.44,2.42-2.14c.96-.07,1.93-.1,2.9-.1.6,0,1.19,0,1.81-.01.65,0,1.29,0,1.96,0,.66,0,1.32,0,2.01,0,1.4,0,2.8,0,4.2,0,2.15,0,4.3-.01,6.45-.03,1.36,0,2.72,0,4.08,0q.97,0,1.96-.02c.6,0,1.19,0,1.81,0,.53,0,1.05,0,1.6,0q1.3.17,2.7,1.57c-.16,3.79-1.32,6.33-3.41,9.4-3.5,5.37-6.79,10.86-10.04,16.38q-7.78,13.18-11.07,18.37c-3.24,5.1-6.34,10.29-9.44,15.47-4.18,6.98-8.36,13.94-12.59,20.89-.24.4-.48.79-.73,1.2-.98,1.61-1.95,3.21-2.93,4.82-1.81,2.98-3.62,5.96-5.43,8.94-.53.88-1.06,1.75-1.6,2.63-1,1.64-1.99,3.28-2.99,4.93-1.37,2.26-2.74,4.51-4.11,6.76-.25.41-.5.83-.76,1.26-.76,1.26-1.53,2.52-2.3,3.77-.45.75-.91,1.49-1.37,2.26q-1.17,1.8-2.56,3.2-1.36.17-3.04.17c-.63,0-1.26,0-1.9,0-.68,0-1.36-.01-2.06-.02-.69,0-1.39,0-2.11,0-1.47,0-2.94,0-4.41-.02-2.26-.01-4.52-.01-6.78-.01-1.43,0-2.85,0-4.28-.01-.68,0-1.36,0-2.06,0-.63,0-1.25,0-1.9-.01-.55,0-1.11,0-1.68,0q-1.27-.09-1.97-.79c-.66-4.29,1.34-6.79,3.63-10.18.77-1.18,1.54-2.36,2.31-3.54.4-.61.81-1.23,1.22-1.86,2.07-3.18,4.05-6.41,6.04-9.64.37-.59.73-1.18,1.11-1.79.71-1.14,1.41-2.29,2.11-3.44.74-1.19,1.51-2.37,2.29-3.54.39-.6.78-1.19,1.18-1.81.36-.53.72-1.06,1.09-1.6,1.47-3.7-.26-7.8-1.45-11.43-.15-.45-.29-.9-.44-1.36-.48-1.48-.97-2.96-1.45-4.44-.34-1.05-.69-2.11-1.03-3.16-.91-2.78-1.82-5.57-2.73-8.35-.9-2.75-1.79-5.5-2.69-8.25-.35-1.09-.71-2.17-1.06-3.26-.7-2.16-1.41-4.32-2.11-6.49-.35-1.07-.7-2.15-1.05-3.22q-.26-.79-.52-1.6c-1.03-3.17-2.08-6.34-3.13-9.51-.66-2.01-1.32-4.01-1.98-6.02-.31-.94-.62-1.87-.93-2.81-.43-1.28-.85-2.57-1.27-3.86-.24-.72-.48-1.44-.73-2.19-.54-2.19-.7-4-.51-6.25,1.85-1.85,3.24-1.58,5.77-1.61Z"/>
  <path class="cls-1" d="M578.31,397.24c.58,0,1.16,0,1.76,0,1.23,0,2.45.02,3.68.03,1.88.03,3.75.03,5.63.03,1.19,0,2.38.02,3.57.02.56,0,1.12,0,1.7,0,2.69.05,4.02.1,6.32,1.63,1.28,5.96-.81,13.14-1.76,19.09-.19,1.21-.38,2.43-.57,3.64-.51,3.28-1.03,6.56-1.55,9.84-.43,2.74-.87,5.48-1.3,8.23-1.02,6.47-2.04,12.94-3.07,19.4-1.06,6.67-2.11,13.34-3.15,20.01-.9,5.73-1.8,11.47-2.71,17.2-.54,3.42-1.08,6.84-1.62,10.27-.5,3.21-1.01,6.43-1.53,9.64-.19,1.18-.37,2.36-.56,3.54-.25,1.61-.51,3.22-.77,4.83-.14.9-.28,1.8-.43,2.73-.56,2.34-1.25,3.91-2.66,5.84q-1.3.44-2.77.44c-.55,0-1.11.02-1.68.03-.59,0-1.19-.02-1.8-.03-.61,0-1.23,0-1.86,0-1.3,0-2.59-.01-3.89-.03-1.98-.02-3.97-.01-5.95,0-1.26,0-2.52-.01-3.77-.02-.59,0-1.19,0-1.8.01-.55-.01-1.11-.02-1.68-.03q-.73,0-1.47-.01-1.3-.36-2.55-1.5c-1.18-2.3-.84-3.66-.42-6.2q.11-.71.22-1.43c.26-1.64.53-3.27.81-4.9.19-1.21.39-2.43.58-3.64.45-2.83.9-5.66,1.36-8.48.9-5.59,1.76-11.2,2.61-16.8,1.54-10.09,3.1-20.18,4.67-30.26.92-5.9,1.84-11.81,2.74-17.72.8-5.24,1.61-10.47,2.43-15.7.43-2.75.86-5.49,1.27-8.24.39-2.56.79-5.12,1.2-7.68.22-1.38.42-2.77.63-4.15.13-.82.27-1.64.4-2.49q.17-1.07.34-2.16c1.53-4.89,4.82-5.06,9.39-4.98Z"/>
</svg>